
<svg xmlns="http://www.w3.org/2000/svg" width="500" height="400" viewBox="0 0 500 400" fill="none">
  <circle cx="250" cy="200" r="180" fill="#F8F9FF"/>
  <path d="M330 150C350.6 150 369.4 157.9 385.2 173.7C401 189.5 410 208.1 410 228.7C410 249.3 401 268.1 385.2 283.9C369.4 299.7 350.8 308.7 330 308.7C309.2 308.7 290.6 299.7 274.8 283.9C259 268.1 250 249.3 250 228.7C250 208.1 259 189.5 274.8 173.7C290.6 157.9 309.4 150 330 150Z" fill="#9B87F5" fill-opacity="0.2"/>
  <path d="M170 90C190.6 90 209.4 97.9 225.2 113.7C241 129.5 250 148.1 250 168.7C250 189.3 241 208.1 225.2 223.9C209.4 239.7 190.8 248.7 170 248.7C149.2 248.7 130.6 239.7 114.8 223.9C99 208.1 90 189.3 90 168.7C90 148.1 99 129.5 114.8 113.7C130.6 97.9 149.4 90 170 90Z" fill="#F86CA0" fill-opacity="0.2"/>
  <path d="M290 120L320 135L310 110L340 100L310 90L320 65L290 80L270 55L260 80L230 70L260 95L240 120L270 110L290 135V120Z" fill="#F86CA0"/>
  <path d="M150 200L180 215L170 190L200 180L170 170L180 145L150 160L130 135L120 160L90 150L120 175L100 200L130 190L150 215V200Z" fill="#9B87F5"/>
  <path d="M220 270L240 280L235 260L255 255L235 245L240 230L220 240L205 220L200 240L180 230L200 250L185 270L205 260L220 280V270Z" fill="#FF8E3C"/>
  <circle cx="270" cy="130" r="10" fill="#F86CA0"/>
  <circle cx="150" cy="200" r="10" fill="#9B87F5"/>
  <circle cx="220" cy="270" r="10" fill="#FF8E3C"/>
  <circle cx="330" cy="200" r="10" fill="#9B87F5"/>
  <path d="M200 150L220 160L215 140L235 135L215 125L220 110L200 120L185 100L180 120L160 110L180 130L165 150L185 140L200 160V150Z" fill="#FF8E3C" fill-opacity="0.6"/>
  <path d="M245 220H255V300H245V220Z" fill="#9B87F5"/>
  <circle cx="250" cy="300" r="30" fill="#9B87F5"/>
  <path d="M225 300C225 311 234 320 245 320H255C266 320 275 311 275 300H225Z" fill="white"/>
  <path d="M245 220H255V230C255 233.3 252.3 236 249 236H245V220Z" fill="#F86CA0"/>
  <path d="M240 270H260C270 270 265 290 250 290C235 290 230 270 240 270Z" fill="#F86CA0"/>
  <path d="M250 310C255.5 310 260 305.5 260 300C260 294.5 255.5 290 250 290C244.5 290 240 294.5 240 300C240 305.5 244.5 310 250 310Z" fill="#FF8E3C"/>
  <path d="M245 290H255V300H245V290Z" fill="#9B87F5"/>
  <path d="M295 150L310 160L305 140L325 135L305 125L310 110L295 120L280 100L275 120L255 110L275 130L260 150L280 140L295 160V150Z" fill="#F86CA0" fill-opacity="0.6"/>
  <circle cx="250" cy="200" r="130" stroke="#9B87F5" stroke-opacity="0.2" stroke-width="4" stroke-dasharray="8 8"/>
</svg>
